<svg width="64" height="64" viewBox="0 0 64 64" fill="none" xmlns="http://www.w3.org/2000/svg">
<g clip-path="url(#clip0_142_13)">
<rect width="64" height="64" rx="7" fill="black"/>
<path d="M20.6421 48.4906L12.511 45.7206C12.0104 45.5806 11.7216 45.005 11.8617 44.5044L11.8851 44.421L22.6996 12.362C22.8513 11.8198 23.4269 11.531 24.0109 11.6944L31.4863 14.2359L31.6531 14.2826L42.9913 18.1298C43.4919 18.2698 43.8224 18.8571 43.6706 19.3994L43.6473 19.4828L41.0241 27.2502C40.884 27.7508 40.2968 28.0812 39.7545 27.9295L39.6711 27.9061L29.8113 24.5626L28.7457 27.7279L35.8356 30.5214C36.3546 30.7565 36.6133 31.2787 36.4732 31.7793L36.4382 31.9045L33.5596 38.6557C33.3778 39.1447 32.8022 39.4334 32.2599 39.2817L32.1765 39.2583L25.7006 36.6816L21.9534 47.8229C21.76 48.3535 21.1844 48.6423 20.6421 48.4906Z" fill="white"/>
<path d="M49.1084 42.233C49.1084 45.843 46.1785 48.7729 42.5685 48.7729C38.9061 48.7729 35.9763 45.843 35.9763 42.233C35.9763 38.623 38.9061 35.6408 42.5685 35.6408C46.1785 35.6408 49.1084 38.623 49.1084 42.233Z" fill="white"/>
<rect y="6" width="64" height="2" fill="#4E4E4E"/>
<rect y="56" width="64" height="2" fill="#4E4E4E"/>
<rect x="58" width="64" height="2" transform="rotate(90 58 0)" fill="#4E4E4E"/>
<rect x="8" width="64" height="2" transform="rotate(90 8 0)" fill="#4E4E4E"/>
</g>
<defs>
<clipPath id="clip0_142_13">
<rect width="64" height="64" fill="white"/>
</clipPath>
</defs>
</svg>
